PathFileType	4	(X/Y/Z)	/Users/mathieubourgeois/Desktop/Analyse/Traitement/Sujet_03/Data/Transformed_Sujet_03_velo_100.trc
DataRate	CameraRate	NumFrames	NumMarkers	Units	OrigDataRate	OrigDataStartFrame	OrigNumFrames
120.000000	120.000000	6	36	mm	120.000000	708	1890
Frame#	Time	RFHD			LFHD			RBHD			LBHD			C7			CLAV			RSHO			LSHO			STRN			T10			RBWT			LBWT			RFWT			LFWT			RKNI			LKNI			RKNE			LKNE			LANI			RANI			LANE			RANE			LTOE			RTOE			LHEE			RHEE			RHUM			LHUM			RRAD			LRAD			RWRA			RWRB			LWRA			LWRB			LCAR			RCAR			
		X1	Y1	Z1	X2	Y2	Z2	X3	Y3	Z3	X4	Y4	Z4	X5	Y5	Z5	X6	Y6	Z6	X7	Y7	Z7	X8	Y8	Z8	X9	Y9	Z9	X10	Y10	Z10	X11	Y11	Z11	X12	Y12	Z12	X13	Y13	Z13	X14	Y14	Z14	X15	Y15	Z15	X16	Y16	Z16	X17	Y17	Z17	X18	Y18	Z18	X19	Y19	Z19	X20	Y20	Z20	X21	Y21	Z21	X22	Y22	Z22	X23	Y23	Z23	X24	Y24	Z24	X25	Y25	Z25	X26	Y26	Z26	X27	Y27	Z27	X28	Y28	Z28	X29	Y29	Z29	X30	Y30	Z30	X31	Y31	Z31	X32	Y32	Z32	X33	Y33	Z33	X34	Y34	Z34	X35	Y35	Z35	X36	Y36	Z36	

709	5.9	149.2891235351562	1565.487548828125	113.4743194580077	135.3755340576172	1561.725952148438	-39.60816574096688	38.04294204711913	1636.206420898438	125.278823852539	14.99691390991211	1648.660766601562	-21.85400581359873	-107.5137329101562	1551.181640625	49.05534362792958	-70.20801544189453	1397.158081054688	48.73993682861319	-52.73639678955081	1490.2333984375	218.9140014648437	-66.71456146240233	1516.316650390625	-128.6255645751954	-172.0106201171875	1259.814697265625	47.67348480224599	-320.6210632324219	1451.051147460938	39.59822463989244	-526.6053466796875	1273.452392578125	110.3204421997069	-528.2352905273438	1266.483154296875	-11.1446800231935	-379.4119873046875	1208.610961914062	175.9207763671874	-381.3970336914062	1180.679809570312	-67.87143707275402	-50.50000381469728	882.552978515625	129.7409667968749	-173.5474395751953	708.0321655273438	-51.191146850586	-64.11613464355472	920.6053466796875	243.5572814941406	-172.0089721679687	755.2908325195312	-159.6819305419923	-408.9002380371094	412.7686767578125	-56.71020507812508	-155.1826629638672	523.1505126953125	128.3126068115234	-432.8419189453125	396.8858032226562	-143.8989257812501	-179.4654083251953	502.55078125	214.4369201660156	-298.6951599121094	242.1124420166016	-94.87847900390631	8.878152847290021	413.9329223632812	147.1556549072265	-502.6787109375	411.4974060058594	-101.7507095336915	-253.9886779785157	476.1842651367188	172.7273864746093	3.771483182907075	1186.482788085938	240.4068603515624	3.809318780899066	1199.30517578125	-144.0324859619141	55.03207397460934	1207.120361328125	300.6602478027343	51.83635711669925	1229.810546875	-205.2339324951173	265.1289978027344	1045.674072265625	214.0066986083984	244.4355926513672	1026.78662109375	292.4210815429688	244.566635131836	1065.453125	-127.4275817871094	214.6069030761719	1037.735107421875	-197.7979278564453	308.792724609375	1026.782470703125	-226.7183685302735	346.4886474609374	1016.705383300781	304.1838684082031	
710	5.908333333333333	148.7749633789062	1565.296508789062	112.9113082885741	134.8939361572266	1561.384643554688	-40.20121383667	37.56179046630858	1636.096435546875	124.5621185302733	14.55360126495362	1648.396606445312	-22.59503555297861	-108.0820236206055	1551.03857421875	48.43476867675771	-70.64995574951172	1396.984375	48.27137756347647	-53.14067077636722	1490.399291992188	218.2143249511718	-67.30802154541014	1516.067626953125	-129.1773834228516	-173.5903015136719	1259.6328125	47.81270599365224	-321.1712646484375	1450.727661132812	39.61329269409166	-526.80419921875	1272.575317382812	110.979293823242	-528.6636352539062	1266.072631835938	-10.58313465118422	-379.4814758300781	1207.486083984375	176.6931152343749	-381.5770874023438	1180.521606445312	-67.37258148193371	-53.8152542114258	868.385009765625	129.3577423095703	-167.1203460693359	715.2711181640625	-51.73591232299811	-68.38225555419925	909.01953125	242.9959259033203	-164.1267547607422	762.502685546875	-160.3961639404298	-411.537109375	428.7278747558594	-55.96271896362313	-154.5966186523438	507.7954711914062	127.5989685058593	-435.675537109375	413.2424926757812	-143.6249542236329	-172.9621276855469	486.8406982421875	215.7322540283203	-305.3763732910156	255.9136657714844	-94.49669647216803	15.41654396057127	399.2111511230469	146.7932434082031	-505.3682250976562	429.6831665039062	-101.5203857421876	-247.6085205078125	459.6686706542969	175.3248138427734	3.755541324615449	1186.853393554688	240.1301727294921	3.509733676910418	1199.05615234375	-144.3666076660157	55.16044998168942	1207.588134765625	300.1882934570312	51.53521728515628	1229.597534179688	-205.5687866210938	265.0779113769531	1045.633056640625	214.1597747802734	244.3083038330078	1026.931274414062	292.6021423339844	244.4314575195313	1065.58203125	-127.2876968383789	214.5631256103516	1037.747802734375	-197.6384582519532	308.7567443847656	1026.859741210938	-226.4630737304688	346.3683471679687	1016.746887207031	304.4469604492188	
711	5.916666666666667	148.2664947509766	1565.152709960938	112.2371673583984	134.4175872802734	1561.075561523438	-40.84157180786141	37.06882858276366	1636.047485351562	123.8214111328124	14.08394622802735	1648.150024414062	-23.36287117004404	-108.6579742431641	1550.870727539062	47.74744796752919	-71.08303070068359	1396.813720703125	47.7609977722167	-53.4723815917969	1490.525756835938	217.4799804687499	-67.9065475463867	1515.809814453125	-129.8843536376954	-173.7589874267578	1259.420288085938	47.42010116577138	-321.7086791992188	1450.365478515625	39.60263442993151	-526.9172973632812	1271.64990234375	111.6486663818358	-529.0726928710938	1265.6318359375	-9.977465629577779	-379.4697875976562	1206.293579101562	177.2820739746092	-381.7764282226562	1180.433227539062	-66.96810913085949	-63.35945892333986	856.1814575195312	129.4512786865234	-159.6193084716797	723.2661743164062	-52.36051559448249	-73.170524597168	896.597900390625	242.4425506591796	-155.9140167236328	770.388427734375	-161.0064392089845	-412.9747314453125	445.1618347167969	-56.43430709838875	-151.0962982177735	492.3345642089844	128.3981475830078	-437.203857421875	429.9454040527344	-143.5784759521485	-168.0982666015625	470.995849609375	216.793228149414	-310.6778564453125	270.560302734375	-94.13150024414068	20.35573577880858	384.2585144042969	146.4072570800781	-506.8607482910156	448.1919860839844	-101.632553100586	-242.8009490966797	443.3673400878906	177.3964233398437	3.791205644607515	1187.167602539062	239.8496551513671	3.28180932998659	1198.88916015625	-144.714584350586	55.31154251098629	1208.006958007812	299.6961364746093	51.29627990722659	1229.3583984375	-205.928939819336	265.0429382324219	1045.564819335938	214.3124389648437	244.226333618164	1027.037475585938	292.7424011230469	244.2929382324219	1065.706909179688	-127.1457443237305	214.5462493896485	1037.742919921875	-197.5008239746094	308.7289428710938	1026.924926757812	-226.2013549804688	346.2922668457031	1016.734436035156	304.6731262207031	
712	5.925	147.2336273193359	1564.849975585938	111.9643020629882	133.9275512695312	1560.846435546875	-41.57085037231453	36.5239791870117	1635.997314453125	123.030662536621	13.61055755615235	1647.925537109375	-24.189458847046	-109.2214889526367	1550.721801757812	47.00756454467763	-71.53996276855469	1396.654296875	47.11223983764639	-53.81419372558597	1490.596313476562	216.6370086669921	-68.53432464599608	1515.522338867188	-130.6401824951173	-174.0879821777344	1259.22119140625	46.85784530639638	-322.2251586914062	1449.997314453125	39.55154800415026	-526.89892578125	1270.728881835938	112.4050216674803	-529.496826171875	1265.170654296875	-9.267622947693015	-379.318359375	1205.030517578125	177.845977783203	-381.965576171875	1180.377563476562	-66.5795135498048	-60.2635955810547	842.274658203125	128.9683685302734	-153.6249237060547	731.8270263671875	-52.65799713134772	-78.54412078857425	883.572021484375	241.8324279785156	-147.4755249023437	778.8867797851562	-161.5606536865235	-412.8495178222656	461.525390625	-56.61508178710945	-148.6119689941407	475.9238586425781	128.8083953857421	-437.5236206054688	446.9619140625	-143.6530914306641	-164.8239440917969	454.9759216308594	217.4624938964843	-314.4981384277344	285.8655700683594	-93.75780487060553	23.83096694946287	369.2456970214844	145.8756408691406	-507.6780090332031	466.5645141601562	-104.485206604004	-239.4133605957032	427.2069091796875	178.804702758789	3.845688343048066	1187.391967773438	239.4597930908202	3.009095668792742	1198.670288085938	-145.137435913086	55.49946594238278	1208.368896484375	299.1741943359374	51.02424240112308	1229.130615234375	-206.302703857422	265.0407409667969	1045.488891601562	214.428726196289	244.1596374511718	1027.123657226562	292.8811645507812	244.1847686767578	1065.818725585938	-127.0464630126954	214.5394439697266	1037.775756835938	-197.3937530517578	308.7282409667969	1026.987548828125	-226.0025177001953	346.2115783691406	1016.702331542969	304.8553771972656	
713	5.933333333333334	146.7045440673828	1564.87939453125	111.2315521240234	133.5318756103516	1560.68408203125	-42.28622055053719	35.99385452270506	1635.965209960938	122.1503067016601	13.12666511535645	1647.754638671875	-25.09205055236826	-109.7000274658203	1550.579956054688	46.12712478637685	-71.88563537597656	1396.519287109375	46.27976226806631	-54.07492828369143	1490.627685546875	215.7283325195312	-69.16526794433592	1515.277099609375	-131.5227966308595	-174.3586730957031	1258.956787109375	46.32233047485342	-322.696044921875	1449.643920898438	39.50299835205065	-526.8057250976562	1269.84375	113.2055130004881	-529.857177734375	1264.727294921875	-8.476849555969382	-379.0917053222656	1203.741333007812	178.3003845214842	-382.2130432128906	1180.4755859375	-66.27640533447277	-66.89369201660158	827.97216796875	128.3502044677734	-141.5952758789062	741.2218627929688	-53.63339233398443	-84.58832550048831	870.1666870117188	241.2244415283203	-138.9100036621093	787.9598388671875	-161.9929351806641	-411.7899780273438	478.3812255859375	-57.076457977295	-147.4549560546875	459.866455078125	128.9422760009765	-436.6376037597656	464.0955505371094	-143.8807983398438	-163.0096130371094	439.0089111328125	217.8129882812499	-316.7262573242188	301.93408203125	-93.38413238525396	25.7628650665283	353.3875427246094	145.5083770751953	-506.5537414550781	485.2357482910156	-104.3737564086915	-237.3963928222657	411.2492980957031	179.7397308349609	3.919772624969453	1187.513916015625	239.0266113281249	2.822617530822772	1198.47265625	-145.4963989257813	55.65983200073239	1208.699584960938	298.6111755371093	50.81778335571292	1228.919555664062	-206.6913146972657	265.0436401367188	1045.401977539062	214.5047912597656	244.110595703125	1027.1796875	292.9721374511719	244.0747680664063	1065.921508789062	-126.9874496459961	214.5120697021485	1037.787719726562	-197.3640899658203	308.7192077636719	1027.044189453125	-225.884765625	346.1778259277343	1016.650146484375	304.9994201660156	
714	5.941666666666666	146.8318786621094	1565.198364257812	109.980743408203	133.1643218994141	1560.58447265625	-43.11422348022469	35.53791046142577	1636.006958007812	121.1996994018554	12.71080684661866	1647.616577148438	-26.0429801940919	-110.2092208862305	1550.505249023438	45.21475219726552	-72.14994812011719	1396.409545898438	45.47126770019522	-54.22694778442386	1490.647827148438	214.7676849365234	-69.77828216552733	1515.06982421875	-132.5292205810548	-174.5086975097656	1258.71240234375	45.52545166015615	-323.0802612304688	1449.31591796875	39.42403030395495	-526.6142578125	1269.031005859375	114.1050338745116	-530.1567993164062	1264.33056640625	-7.643386840820455	-378.7348327636719	1202.419799804688	178.7109527587889	-382.4806518554688	1180.758666992188	-65.97027587890636	-74.47999572753908	813.494384765625	127.7103118896484	-134.5699157714844	750.4269409179688	-53.50358963012701	-91.22552490234378	856.6041259765625	240.6221771240234	-130.3448944091797	797.5014038085938	-162.3278350830079	-409.9867553710938	495.3738708496094	-57.43758392333992	-147.2819213867188	443.8987426757812	128.720230102539	-434.7839660644531	481.1524963378906	-144.1615447998048	-162.4328918457032	423.1311340332031	217.8613739013671	-317.3787231445312	318.5526123046875	-93.03612518310553	26.36825180053709	337.10693359375	145.0511932373047	-504.8121337890625	503.5352172851562	-104.9689025878907	-236.6287536621094	395.5867004394531	180.2797393798828	4.023099422454805	1187.603881835938	238.5772705078124	2.618865251541155	1198.2890625	-145.9109649658204	55.78985214233395	1208.949584960938	298.0162353515624	50.62328720092776	1228.669555664062	-207.1427307128907	265.0437622070312	1045.326782226562	214.5021209716797	244.0849456787109	1027.23193359375	292.9616394042969	243.9483337402344	1066.01953125	-127.010612487793	214.4501495361328	1037.787841796875	-197.3513488769532	308.6403503417969	1027.094848632812	-225.851058959961	346.1455688476562	1016.599975585938	305.0565490722656	
